<?xml version="1.0" standalone="no"?>
<!DOCTYPE svg PUBLIC "-//W3C//DTD SVG 20010904//EN"
 "http://www.w3.org/TR/2001/REC-SVG-20010904/DTD/svg10.dtd">
<svg version="1.0" xmlns="http://www.w3.org/2000/svg"
 width="256.000000pt" height="256.000000pt" viewBox="0 0 256.000000 256.000000"
 preserveAspectRatio="xMidYMid meet">
<metadata>
Created by potrace 1.15, written by Peter Selinger 2001-2017
</metadata>
<g transform="translate(0.000000,256.000000) scale(0.100000,-0.100000)"
fill="#000000" stroke="none">
<path d="M630 1185 l0 -945 660 0 660 0 0 835 0 835 -90 0 -90 0 0 110 0 110
-570 0 -570 0 0 -945z m270 515 c0 -20 7 -20 430 -20 423 0 430 0 430 -20 0
-20 -7 -20 -430 -20 -423 0 -430 0 -430 -20 0 -18 -7 -20 -55 -20 l-55 0 0 60
0 60 55 0 c48 0 55 -2 55 -20z m0 -300 c0 -20 7 -20 430 -20 423 0 430 0 430
-20 0 -20 -7 -20 -430 -20 -423 0 -430 0 -430 -20 0 -18 -7 -20 -55 -20 l-55
0 0 60 0 60 55 0 c48 0 55 -2 55 -20z m0 -300 c0 -20 7 -20 430 -20 423 0 430
0 430 -20 0 -20 -7 -20 -430 -20 -423 0 -430 0 -430 -20 0 -18 -7 -20 -55 -20
l-55 0 0 60 0 60 55 0 c48 0 55 -2 55 -20z m0 -270 c0 -20 7 -20 430 -20 423
0 430 0 430 -20 0 -20 -7 -20 -430 -20 -423 0 -430 0 -430 -20 0 -18 -7 -20
-55 -20 l-55 0 0 60 0 60 55 0 c48 0 55 -2 55 -20z m0 -280 c0 -20 7 -20 430
-20 423 0 430 0 430 -20 0 -20 -7 -20 -430 -20 -423 0 -430 0 -430 -20 0 -18
-7 -20 -55 -20 l-55 0 0 60 0 60 55 0 c48 0 55 -2 55 -20z"/>
</g>
</svg>
